<?xml version="1.0" encoding="UTF-8"?>
<!DOCTYPE svg PUBLIC "-//W3C//DTD SVG 1.1//EN" "http://www.w3.org/Graphics/SVG/1.1/DTD/svg11.dtd">
<svg xmlns="http://www.w3.org/2000/svg" version="1.1" width="1280px" height="720px" style="shape-rendering:geometricPrecision; text-rendering:geometricPrecision; image-rendering:optimizeQuality; fill-rule:evenodd; clip-rule:evenodd" xmlns:xlink="http://www.w3.org/1999/xlink">
<g><path style="opacity:1" fill="#fefefe" d="M -0.5,-0.5 C 426.167,-0.5 852.833,-0.5 1279.5,-0.5C 1279.5,239.5 1279.5,479.5 1279.5,719.5C 852.833,719.5 426.167,719.5 -0.5,719.5C -0.5,479.5 -0.5,239.5 -0.5,-0.5 Z"/></g>
<g><path style="opacity:1" fill="#060504" d="M 733.5,92.5 C 734.609,92.5569 735.609,92.8902 736.5,93.5C 738.46,95.1563 740.46,96.823 742.5,98.5C 743.815,99.4756 745.148,100.476 746.5,101.5C 747.5,224.832 747.833,348.165 747.5,471.5C 748.153,516.385 747.487,561.052 745.5,605.5C 741.833,605.5 738.167,605.5 734.5,605.5C 735.084,608.285 734.084,609.952 731.5,610.5C 730.833,610.5 730.5,610.167 730.5,609.5C 731.167,609.5 731.5,609.167 731.5,608.5C 732.666,438.334 732.833,268 732,97.5C 731.617,96.944 731.117,96.6107 730.5,96.5C 730.5,96.1667 730.5,95.8333 730.5,95.5C 731.1,94.1001 732.1,93.1001 733.5,92.5 Z"/></g>
<g><path style="opacity:1" fill="#ece7a0" d="M 726.5,92.5 C 726.5,95.1667 726.5,97.8333 726.5,100.5C 724.938,100.267 723.605,99.6005 722.5,98.5C 722.183,95.4281 722.516,92.4281 723.5,89.5C 724.855,90.1882 725.855,91.1882 726.5,92.5 Z"/></g>
<g><path style="opacity:1" fill="#7acb93" d="M 726.5,92.5 C 727.833,93.5 729.167,94.5 730.5,95.5C 730.5,95.8333 730.5,96.1667 730.5,96.5C 729.833,98.5 729.167,100.5 728.5,102.5C 728.167,102.5 727.833,102.5 727.5,102.5C 727.167,101.833 726.833,101.167 726.5,100.5C 726.5,97.8333 726.5,95.1667 726.5,92.5 Z"/></g>
<g><path style="opacity:1" fill="#fafea1" d="M 716.5,506.5 C 716.5,537.833 716.5,569.167 716.5,600.5C 710.374,599.235 704.374,597.569 698.5,595.5C 696.52,593.895 694.187,592.728 691.5,592C 695.192,592.004 698.525,591.004 701.5,589C 697.151,588.977 692.817,589.477 688.5,590.5C 687.833,590.167 687.167,589.833 686.5,589.5C 687.376,588.749 688.376,588.249 689.5,588C 687.432,587.313 685.432,587.48 683.5,588.5C 681.952,585.049 679.952,584.716 677.5,587.5C 676.833,587.333 676.167,587.167 675.5,587C 670.87,585.333 666.203,583.667 661.5,582C 664.518,582.499 667.518,582.332 670.5,581.5C 665.781,579.83 661.114,578.164 656.5,576.5C 657,576.167 657.5,575.833 658,575.5C 662.23,577.081 666.397,577.247 670.5,576C 666.489,575.834 665.989,575 669,573.5C 672.667,574.833 676.333,574.833 680,573.5C 680.122,571.831 679.788,570.165 679,568.5C 677.443,569.205 676.277,568.539 675.5,566.5C 680.082,562.632 681.749,557.632 680.5,551.5C 682.167,551.5 683.833,551.5 685.5,551.5C 685.5,491.5 685.5,431.5 685.5,371.5C 685.5,371.167 685.5,370.833 685.5,370.5C 688.558,368.757 690.558,366.09 691.5,362.5C 693.358,360.117 694.692,357.45 695.5,354.5C 704.72,347.202 704.72,340.035 695.5,333C 691.179,332.501 686.846,332.334 682.5,332.5C 680.42,330.953 678.087,329.619 675.5,328.5C 678.5,327.667 681.5,326.833 684.5,326C 683.207,325.51 681.873,325.343 680.5,325.5C 680.5,323.5 680.5,321.5 680.5,319.5C 682.099,319.768 683.432,319.434 684.5,318.5C 685.833,286.007 686.5,253.174 686.5,220C 686.5,186.998 686.167,154.165 685.5,121.5C 685.167,121.5 684.833,121.5 684.5,121.5C 681.211,122.374 677.877,123.041 674.5,123.5C 669.318,123.443 669.318,122.776 674.5,121.5C 672.034,120.877 669.701,120.043 667.5,119C 670.36,117.924 673.36,117.091 676.5,116.5C 674.042,115.081 671.375,114.081 668.5,113.5C 669.63,112.378 670.297,111.044 670.5,109.5C 670.833,109.5 671.167,109.5 671.5,109.5C 674.716,109.655 677.383,108.655 679.5,106.5C 680.167,106.5 680.833,106.5 681.5,106.5C 684.549,105.643 687.549,105.643 690.5,106.5C 692.614,105.966 694.448,104.966 696,103.5C 696.333,103.833 696.667,104.167 697,104.5C 700.745,103.703 704.579,103.203 708.5,103C 710.725,100.997 712.392,101.497 713.5,104.5C 714.74,238.664 715.74,372.664 716.5,506.5 Z"/></g>
<g><path style="opacity:1" fill="#e25682" d="M 722.5,98.5 C 723.605,99.6005 724.938,100.267 726.5,100.5C 726.833,101.167 727.167,101.833 727.5,102.5C 726.596,103.209 726.263,104.209 726.5,105.5C 725.5,104.833 724.5,104.167 723.5,103.5C 723.5,102.833 723.167,102.5 722.5,102.5C 722.5,101.167 722.5,99.8333 722.5,98.5 Z"/></g>
<g><path style="opacity:1" fill="#66c9ed" d="M 742.5,98.5 C 740.46,96.823 738.46,95.1563 736.5,93.5C 738.377,92.3409 738.877,90.6742 738,88.5C 735.793,85.436 732.959,83.436 729.5,82.5C 729.5,84.5 729.5,86.5 729.5,88.5C 728.29,88.0679 727.29,87.4013 726.5,86.5C 726.5,84.1667 726.5,81.8333 726.5,79.5C 724.05,79.298 721.717,79.6314 719.5,80.5C 700.994,86.1133 682.661,92.1133 664.5,98.5C 646.483,103.786 628.483,108.952 610.5,114C 597.406,118.677 584.406,123.177 571.5,127.5C 558.675,130.577 546.009,134.243 533.5,138.5C 533.5,139.833 533.5,141.167 533.5,142.5C 532.609,143.11 531.609,143.443 530.5,143.5C 530.5,140.833 530.5,138.167 530.5,135.5C 595.823,115.372 661.156,95.3716 726.5,75.5C 732.64,78.1281 737.807,82.1281 742,87.5C 742.499,91.1516 742.665,94.8183 742.5,98.5 Z"/></g>
<g><path style="opacity:1" fill="#e9f1f4" d="M 736.5,93.5 C 735.609,92.8902 734.609,92.5569 733.5,92.5C 732.473,90.8058 731.139,89.4725 729.5,88.5C 729.5,86.5 729.5,84.5 729.5,82.5C 732.959,83.436 735.793,85.436 738,88.5C 738.877,90.6742 738.377,92.3409 736.5,93.5 Z"/></g>
<g><path style="opacity:1" fill="#e1e6e7" d="M 726.5,86.5 C 723.94,84.7267 721.607,82.7267 719.5,80.5C 721.717,79.6314 724.05,79.298 726.5,79.5C 726.5,81.8333 726.5,84.1667 726.5,86.5 Z"/></g>
<g><path style="opacity:1" fill="#fef4ac" d="M 713.5,96.5 C 715.165,130.321 716.165,164.321 716.5,198.5C 716.5,268.833 716.5,339.167 716.5,409.5C 716.5,441.833 716.5,474.167 716.5,506.5C 715.74,372.664 714.74,238.664 713.5,104.5C 712.392,101.497 710.725,100.997 708.5,103C 704.579,103.203 700.745,103.703 697,104.5C 696.667,104.167 696.333,103.833 696,103.5C 694.448,104.966 692.614,105.966 690.5,106.5C 687.549,105.643 684.549,105.643 681.5,106.5C 692.006,103 702.672,99.6669 713.5,96.5 Z"/></g>
<g><path style="opacity:1" fill="#181713" d="M 719.5,80.5 C 721.607,82.7267 723.94,84.7267 726.5,86.5C 727.29,87.4013 728.29,88.0679 729.5,88.5C 731.139,89.4725 732.473,90.8058 733.5,92.5C 732.1,93.1001 731.1,94.1001 730.5,95.5C 729.167,94.5 727.833,93.5 726.5,92.5C 725.855,91.1882 724.855,90.1882 723.5,89.5C 722.516,92.4281 722.183,95.4281 722.5,98.5C 722.5,99.8333 722.5,101.167 722.5,102.5C 722.833,187.668 722.499,272.668 721.5,357.5C 721.83,271.429 721.497,185.429 720.5,99.5C 720.5,98.1667 720.5,96.8333 720.5,95.5C 720.5,92.8333 720.5,90.1667 720.5,87.5C 656.075,107.085 591.742,127.085 527.5,147.5C 526.571,148.689 526.238,150.022 526.5,151.5C 526.263,152.791 526.596,153.791 527.5,154.5C 530.637,288.85 534.303,423.183 538.5,557.5C 538.158,558.338 537.492,558.672 536.5,558.5C 536.316,536.992 535.649,515.659 534.5,494.5C 533.823,479.176 533.49,463.843 533.5,448.5C 532.929,419.993 531.929,391.66 530.5,363.5C 529.252,292.984 527.252,222.651 524.5,152.5C 524.192,150.076 524.526,147.743 525.5,145.5C 527.336,144.972 529.003,144.306 530.5,143.5C 531.609,143.443 532.609,143.11 533.5,142.5C 546.661,138.627 559.661,134.294 572.5,129.5C 603.229,119.146 633.896,108.813 664.5,98.5C 682.661,92.1133 700.994,86.1133 719.5,80.5 Z"/></g>
<g><path style="opacity:1" fill="#ec5080" d="M 718.5,94.5 C 718.414,95.4959 718.748,96.3292 719.5,97C 718.552,97.4828 717.552,97.6495 716.5,97.5C 715.947,95.4482 714.947,95.1148 713.5,96.5C 702.672,99.6669 692.006,103 681.5,106.5C 680.833,106.5 680.167,106.5 679.5,106.5C 676.603,107.129 673.936,108.129 671.5,109.5C 671.167,109.5 670.833,109.5 670.5,109.5C 624.736,123.688 579.069,138.021 533.5,152.5C 533.5,151.5 533.5,150.5 533.5,149.5C 594.61,129.847 655.943,111.014 717.5,93C 718.056,93.3826 718.389,93.8826 718.5,94.5 Z"/></g>
<g><path style="opacity:1" fill="#feceac" d="M 679.5,106.5 C 677.383,108.655 674.716,109.655 671.5,109.5C 673.936,108.129 676.603,107.129 679.5,106.5 Z"/></g>
<g><path style="opacity:1" fill="#eeeaa1" d="M 720.5,95.5 C 719.833,95.1667 719.167,94.8333 718.5,94.5C 718.389,93.8826 718.056,93.3826 717.5,93C 655.943,111.014 594.61,129.847 533.5,149.5C 532.391,149.557 531.391,149.89 530.5,150.5C 529.292,151.234 527.959,151.567 526.5,151.5C 526.238,150.022 526.571,148.689 527.5,147.5C 591.742,127.085 656.075,107.085 720.5,87.5C 720.5,90.1667 720.5,92.8333 720.5,95.5 Z"/></g>
<g><path style="opacity:1" fill="#b9cbd2" d="M 664.5,98.5 C 633.896,108.813 603.229,119.146 572.5,129.5C 575.258,128.033 574.925,127.367 571.5,127.5C 584.406,123.177 597.406,118.677 610.5,114C 628.483,108.952 646.483,103.786 664.5,98.5 Z"/></g>
<g><path style="opacity:1" fill="#dce5e9" d="M 571.5,127.5 C 574.925,127.367 575.258,128.033 572.5,129.5C 559.661,134.294 546.661,138.627 533.5,142.5C 533.5,141.167 533.5,139.833 533.5,138.5C 546.009,134.243 558.675,130.577 571.5,127.5 Z"/></g>
<g><path style="opacity:1" fill="#6bcdf0" d="M 485.5,123.5 C 486.5,123.5 487.5,123.5 488.5,123.5C 485.555,134.14 482.555,144.807 479.5,155.5C 487.72,158.102 496.053,160.435 504.5,162.5C 505.167,162.167 505.833,161.833 506.5,161.5C 509.683,153.782 512.35,145.949 514.5,138C 514.355,137.228 514.022,136.561 513.5,136C 510.068,133.928 506.402,133.262 502.5,134C 499.879,136.072 499.212,138.572 500.5,141.5C 501.36,139.069 503.027,137.736 505.5,137.5C 505.49,143.642 502.657,145.975 497,144.5C 495.413,143.663 494.58,142.33 494.5,140.5C 496.094,137.063 497.927,133.73 500,130.5C 500.804,129.196 501.971,128.529 503.5,128.5C 507.933,130.7 512.6,132.2 517.5,133C 518.624,133.839 519.291,135.006 519.5,136.5C 517.043,146.776 513.71,156.776 509.5,166.5C 507.579,167.641 505.579,167.808 503.5,167C 493.758,164.251 484.091,161.417 474.5,158.5C 474.337,156.143 474.503,153.81 475,151.5C 478.282,141.962 481.782,132.629 485.5,123.5 Z"/></g>
<g><path style="opacity:1" fill="#2a2a19" d="M 677.5,130.5 C 677.5,131.167 677.5,131.833 677.5,132.5C 677.167,132.5 676.833,132.5 676.5,132.5C 662.167,137.833 647.833,143.167 633.5,148.5C 632.005,148.989 630.671,149.655 629.5,150.5C 627.824,151.183 627.157,152.517 627.5,154.5C 627.5,155.5 627.5,156.5 627.5,157.5C 628.549,214.828 629.215,272.161 629.5,329.5C 643.544,328.604 657.544,327.27 671.5,325.5C 671.5,326.167 671.5,326.833 671.5,327.5C 656.866,329.23 642.199,330.563 627.5,331.5C 626.962,273.832 626.295,216.165 625.5,158.5C 625.5,157.833 625.5,157.167 625.5,156.5C 624.476,151.313 626.476,148.313 631.5,147.5C 632.167,147.167 632.833,146.833 633.5,146.5C 648.102,140.966 662.769,135.633 677.5,130.5 Z"/></g>
<g><path style="opacity:1" fill="#fbf8ad" d="M 676.5,132.5 C 677.163,194.176 676.496,255.509 674.5,316.5C 674.5,257.167 674.5,197.833 674.5,138.5C 672.901,138.232 671.568,138.566 670.5,139.5C 658.059,143.646 645.725,147.98 633.5,152.5C 633.5,151.167 633.5,149.833 633.5,148.5C 647.833,143.167 662.167,137.833 676.5,132.5 Z"/></g>
<g><path style="opacity:1" fill="#f7fca6" d="M 681.5,124.5 C 682.499,187.998 682.832,251.664 682.5,315.5C 681.5,315.5 680.5,315.5 679.5,315.5C 679.832,253.664 679.499,191.998 678.5,130.5C 678.167,130.5 677.833,130.5 677.5,130.5C 662.769,135.633 648.102,140.966 633.5,146.5C 633.141,144.234 633.808,142.401 635.5,141C 650.946,135.483 666.279,129.983 681.5,124.5 Z"/></g>
<g><path style="opacity:1" fill="#764980" d="M 533.5,149.5 C 533.5,150.5 533.5,151.5 533.5,152.5C 533.5,152.833 533.5,153.167 533.5,153.5C 532.833,153.5 532.167,153.5 531.5,153.5C 531.167,153.5 530.833,153.5 530.5,153.5C 530.5,152.5 530.5,151.5 530.5,150.5C 531.391,149.89 532.391,149.557 533.5,149.5 Z"/></g>
<g><path style="opacity:1" fill="#fafea1" d="M 668.5,142.5 C 669.5,142.5 670.5,142.5 671.5,142.5C 671.5,200.833 671.5,259.167 671.5,317.5C 662.828,318.116 654.162,318.782 645.5,319.5C 642.5,319.5 639.5,319.5 636.5,319.5C 636.829,305.656 636.496,291.99 635.5,278.5C 634.981,237.433 634.315,196.433 633.5,155.5C 633.5,155.167 633.5,154.833 633.5,154.5C 645.222,150.813 656.889,146.813 668.5,142.5 Z"/></g>
<g><path style="opacity:1" fill="#de4f7b" d="M 530.5,150.5 C 530.5,151.5 530.5,152.5 530.5,153.5C 529.609,154.11 528.609,154.443 527.5,154.5C 526.596,153.791 526.263,152.791 526.5,151.5C 527.959,151.567 529.292,151.234 530.5,150.5 Z"/></g>
<g><path style="opacity:1" fill="#f4f5ab" d="M 629.5,150.5 C 631.048,150.821 631.715,151.821 631.5,153.5C 631.5,153.833 631.5,154.167 631.5,154.5C 630.167,154.5 628.833,154.5 627.5,154.5C 627.157,152.517 627.824,151.183 629.5,150.5 Z"/></g>
<g><path style="opacity:1" fill="#6dc08d" d="M 633.5,148.5 C 633.5,149.833 633.5,151.167 633.5,152.5C 633.5,152.833 633.5,153.167 633.5,153.5C 632.833,153.5 632.167,153.5 631.5,153.5C 631.715,151.821 631.048,150.821 629.5,150.5C 630.671,149.655 632.005,148.989 633.5,148.5 Z"/></g>
<g><path style="opacity:1" fill="#4e3d70" d="M 631.5,153.5 C 632.167,153.5 632.833,153.5 633.5,153.5C 633.5,153.833 633.5,154.167 633.5,154.5C 633.5,154.833 633.5,155.167 633.5,155.5C 632.833,155.5 632.167,155.5 631.5,155.5C 631.5,155.167 631.5,154.833 631.5,154.5C 631.5,154.167 631.5,153.833 631.5,153.5 Z"/></g>
<g><path style="opacity:1" fill="#8b317d" d="M 727.5,102.5 C 727.833,102.5 728.167,102.5 728.5,102.5C 728.833,103.167 729.167,103.833 729.5,104.5C 730.497,270.793 730.831,437.126 730.5,603.5C 729.667,491.334 729.167,379.001 729,266.5C 728.833,379.334 728.333,492.001 727.5,604.5C 727.833,437.999 727.5,271.666 726.5,105.5C 726.263,104.209 726.596,103.209 727.5,102.5 Z"/></g>
<g><path style="opacity:1" fill="#e46987" d="M 627.5,154.5 C 628.833,154.5 630.167,154.5 631.5,154.5C 631.5,154.833 631.5,155.167 631.5,155.5C 631.5,155.833 631.5,156.167 631.5,156.5C 630.167,156.833 628.833,157.167 627.5,157.5C 627.5,156.5 627.5,155.5 627.5,154.5 Z"/></g>
<g><path style="opacity:1" fill="#fe98a1" d="M 713.5,96.5 C 714.947,95.1148 715.947,95.4482 716.5,97.5C 716.5,131.167 716.5,164.833 716.5,198.5C 716.165,164.321 715.165,130.321 713.5,96.5 Z"/></g>
<g><path style="opacity:1" fill="#f1d8ec" d="M 524.5,156.5 C 524.5,178.167 524.5,199.833 524.5,221.5C 523.539,219.735 523.205,217.735 523.5,215.5C 523.827,205.985 523.494,196.652 522.5,187.5C 521.858,176.779 522.525,166.446 524.5,156.5 Z"/></g>
<g><path style="opacity:1" fill="#db5072" d="M 670.5,139.5 C 671.5,139.5 672.5,139.5 673.5,139.5C 673.168,198.669 673.501,257.669 674.5,316.5C 674.5,319.5 674.5,322.5 674.5,325.5C 673.833,325.5 673.167,325.5 672.5,325.5C 672.5,264.167 672.5,202.833 672.5,141.5C 670.901,141.232 669.568,141.566 668.5,142.5C 656.889,146.813 645.222,150.813 633.5,154.5C 633.5,154.167 633.5,153.833 633.5,153.5C 633.5,153.167 633.5,152.833 633.5,152.5C 645.725,147.98 658.059,143.646 670.5,139.5 Z"/></g>
<g><path style="opacity:1" fill="#5ec78c" d="M 684.5,121.5 C 684.832,186.335 684.499,251.002 683.5,315.5C 683.833,251.497 683.5,187.497 682.5,123.5C 681.893,123.624 681.56,123.957 681.5,124.5C 666.279,129.983 650.946,135.483 635.5,141C 633.808,142.401 633.141,144.234 633.5,146.5C 632.833,146.833 632.167,147.167 631.5,147.5C 631.232,144.881 631.565,142.381 632.5,140C 646.599,134.488 660.599,128.988 674.5,123.5C 677.877,123.041 681.211,122.374 684.5,121.5 Z"/></g>
<g><path style="opacity:1" fill="#e45779" d="M 718.5,94.5 C 719.167,94.8333 719.833,95.1667 720.5,95.5C 720.5,96.8333 720.5,98.1667 720.5,99.5C 719.883,99.3893 719.383,99.056 719,98.5C 718.5,196.499 718.333,294.499 718.5,392.5C 718.667,462.167 718.5,531.834 718,601.5C 717.833,537.332 717.333,473.332 716.5,409.5C 716.5,339.167 716.5,268.833 716.5,198.5C 716.5,164.833 716.5,131.167 716.5,97.5C 717.552,97.6495 718.552,97.4828 719.5,97C 718.748,96.3292 718.414,95.4959 718.5,94.5 Z"/></g>
<g><path style="opacity:1" fill="#f98b98" d="M 670.5,139.5 C 671.568,138.566 672.901,138.232 674.5,138.5C 674.5,197.833 674.5,257.167 674.5,316.5C 673.501,257.669 673.168,198.669 673.5,139.5C 672.5,139.5 671.5,139.5 670.5,139.5 Z"/></g>
<g><path style="opacity:1" fill="#89bd80" d="M 684.5,121.5 C 684.833,121.5 685.167,121.5 685.5,121.5C 685.83,187.238 685.496,252.904 684.5,318.5C 682.833,318.5 681.167,318.5 679.5,318.5C 679.806,321.385 679.473,324.052 678.5,326.5C 678.5,261.167 678.5,195.833 678.5,130.5C 679.499,191.998 679.832,253.664 679.5,315.5C 680.5,315.5 681.5,315.5 682.5,315.5C 682.833,315.5 683.167,315.5 683.5,315.5C 684.499,251.002 684.832,186.335 684.5,121.5 Z"/></g>
<g><path style="opacity:1" fill="#e452ca" d="M 524.5,152.5 C 524.5,153.833 524.5,155.167 524.5,156.5C 522.525,166.446 521.858,176.779 522.5,187.5C 522.666,191.846 522.499,196.179 522,200.5C 521.821,196.975 521.321,193.641 520.5,190.5C 520.551,178.153 520.217,165.82 519.5,153.5C 521.216,153.371 522.883,153.038 524.5,152.5 Z"/></g>
<g><path style="opacity:1" fill="#f4fba5" d="M 631.5,156.5 C 632.543,211.827 633.21,267.16 633.5,322.5C 646.197,321.877 658.864,320.877 671.5,319.5C 671.5,321.5 671.5,323.5 671.5,325.5C 657.544,327.27 643.544,328.604 629.5,329.5C 629.215,272.161 628.549,214.828 627.5,157.5C 628.833,157.167 630.167,156.833 631.5,156.5 Z"/></g>
<g><path style="opacity:1" fill="#b7f4ac" d="M 681.5,124.5 C 681.56,123.957 681.893,123.624 682.5,123.5C 683.5,187.497 683.833,251.497 683.5,315.5C 683.167,315.5 682.833,315.5 682.5,315.5C 682.832,251.664 682.499,187.998 681.5,124.5 Z"/></g>
<g><path style="opacity:1" fill="#e876d1" d="M 522.5,187.5 C 523.494,196.652 523.827,205.985 523.5,215.5C 522.506,224.986 522.173,234.652 522.5,244.5C 522.167,244.5 521.833,244.5 521.5,244.5C 521.471,226.493 521.138,208.493 520.5,190.5C 521.321,193.641 521.821,196.975 522,200.5C 522.499,196.179 522.666,191.846 522.5,187.5 Z"/></g>
<g><path style="opacity:1" fill="#eaebaf" d="M 775.5,210.5 C 769.167,210.5 762.833,210.5 756.5,210.5C 756.5,216.167 756.5,221.833 756.5,227.5C 755.475,226.626 754.808,225.459 754.5,224C 755.419,219.219 755.752,214.385 755.5,209.5C 762.354,209.176 769.021,209.509 775.5,210.5 Z"/></g>
<g><path style="opacity:1" fill="#f8fc92" d="M 775.5,210.5 C 779.5,209.833 781.167,211.5 780.5,215.5C 780.5,217.5 780.5,219.5 780.5,221.5C 776.774,221.823 773.107,221.489 769.5,220.5C 772.428,219.516 775.428,219.183 778.5,219.5C 778.739,217.533 778.406,215.699 777.5,214C 771.183,213.235 764.849,212.735 758.5,212.5C 758.19,215.713 758.523,218.713 759.5,221.5C 759.5,222.833 759.5,224.167 759.5,225.5C 764.094,225.865 768.427,226.865 772.5,228.5C 767.5,228.5 762.5,228.5 757.5,228.5C 756.833,228.5 756.5,228.167 756.5,227.5C 756.5,221.833 756.5,216.167 756.5,210.5C 762.833,210.5 769.167,210.5 775.5,210.5 Z"/></g>
<g><path style="opacity:1" fill="#f3f69e" d="M 789.5,228.5 C 783.897,229.513 778.23,229.513 772.5,228.5C 768.427,226.865 764.094,225.865 759.5,225.5C 768.852,225.651 778.185,225.817 787.5,226C 789.629,220.904 791.629,215.737 793.5,210.5C 792.885,208.616 791.552,207.616 789.5,207.5C 780.355,205.387 771.022,203.887 761.5,203C 760.663,201.989 760.33,200.822 760.5,199.5C 773.143,201.013 785.81,202.346 798.5,203.5C 797.99,212.829 794.99,221.163 789.5,228.5 Z"/></g>
<g><path style="opacity:1" fill="#feaaa9" d="M 668.5,142.5 C 669.568,141.566 670.901,141.232 672.5,141.5C 672.5,202.833 672.5,264.167 672.5,325.5C 672.167,325.5 671.833,325.5 671.5,325.5C 671.5,323.5 671.5,321.5 671.5,319.5C 671.5,318.833 671.5,318.167 671.5,317.5C 671.5,259.167 671.5,200.833 671.5,142.5C 670.5,142.5 669.5,142.5 668.5,142.5 Z"/></g>
<g><path style="opacity:1" fill="#eaebb4" d="M 780.5,215.5 C 781.468,217.607 781.802,219.941 781.5,222.5C 777.154,222.666 772.821,222.499 768.5,222C 767.663,220.989 767.33,219.822 767.5,218.5C 769.857,218.663 772.19,218.497 774.5,218C 775.973,217.29 776.64,216.124 776.5,214.5C 771.467,214.328 766.467,214.161 761.5,214C 759.709,216.106 759.042,218.606 759.5,221.5C 758.523,218.713 758.19,215.713 758.5,212.5C 764.849,212.735 771.183,213.235 777.5,214C 778.406,215.699 778.739,217.533 778.5,219.5C 775.428,219.183 772.428,219.516 769.5,220.5C 773.107,221.489 776.774,221.823 780.5,221.5C 780.5,219.5 780.5,217.5 780.5,215.5 Z"/></g>
<g><path style="opacity:1" fill="#e7e9bd" d="M 757.5,228.5 C 762.5,228.5 767.5,228.5 772.5,228.5C 778.23,229.513 783.897,229.513 789.5,228.5C 786.062,229.823 782.229,230.49 778,230.5C 770.947,230.571 764.114,229.904 757.5,228.5 Z"/></g>
<g><path style="opacity:1" fill="#ceae8f" d="M 730.5,96.5 C 731.117,96.6107 731.617,96.944 732,97.5C 732.833,268 732.666,438.334 731.5,608.5C 731.5,607.833 731.5,607.167 731.5,606.5C 731.5,605.5 731.5,604.5 731.5,603.5C 731.667,437.5 731.5,271.5 731,105.5C 730.617,104.944 730.117,104.611 729.5,104.5C 729.167,103.833 728.833,103.167 728.5,102.5C 729.167,100.5 729.833,98.5 730.5,96.5 Z"/></g>
<g><path style="opacity:1" fill="#e85e7e" d="M 625.5,156.5 C 625.5,157.167 625.5,157.833 625.5,158.5C 624.504,158.414 623.671,158.748 623,159.5C 623.297,218.83 623.797,278.163 624.5,337.5C 640.539,336.558 656.539,335.225 672.5,333.5C 672.5,331.5 672.5,329.5 672.5,327.5C 673.167,327.5 673.833,327.5 674.5,327.5C 674.5,330.167 674.5,332.833 674.5,335.5C 672.833,335.5 671.167,335.5 669.5,335.5C 653.86,337.413 638.193,339.08 622.5,340.5C 621.816,279.5 621.15,218.5 620.5,157.5C 622.216,157.371 623.883,157.038 625.5,156.5 Z"/></g>
<g><path style="opacity:1" fill="#e0feb1" d="M 685.5,121.5 C 686.167,154.165 686.5,186.998 686.5,220C 686.5,253.174 685.833,286.007 684.5,318.5C 685.496,252.904 685.83,187.238 685.5,121.5 Z"/></g>
<g><path style="opacity:1" fill="#8f915c" d="M 676.5,132.5 C 676.833,132.5 677.167,132.5 677.5,132.5C 677.5,196.833 677.5,261.167 677.5,325.5C 676.5,325.5 675.5,325.5 674.5,325.5C 674.5,322.5 674.5,319.5 674.5,316.5C 676.496,255.509 677.163,194.176 676.5,132.5 Z"/></g>
<g><path style="opacity:1" fill="#0a0600" d="M 677.5,130.5 C 677.833,130.5 678.167,130.5 678.5,130.5C 678.5,195.833 678.5,261.167 678.5,326.5C 676.901,326.232 675.568,326.566 674.5,327.5C 673.833,327.5 673.167,327.5 672.5,327.5C 672.167,327.5 671.833,327.5 671.5,327.5C 671.5,326.833 671.5,326.167 671.5,325.5C 671.833,325.5 672.167,325.5 672.5,325.5C 673.167,325.5 673.833,325.5 674.5,325.5C 675.5,325.5 676.5,325.5 677.5,325.5C 677.5,261.167 677.5,196.833 677.5,132.5C 677.5,131.833 677.5,131.167 677.5,130.5 Z"/></g>
<g><path style="opacity:1" fill="#f1b8e9" d="M 521.5,244.5 C 521.833,244.5 522.167,244.5 522.5,244.5C 522.96,257.163 523.293,269.829 523.5,282.5C 521.743,270.047 521.076,257.38 521.5,244.5 Z"/></g>
<g><path style="opacity:1" fill="#e55387" d="M 729.5,104.5 C 730.117,104.611 730.617,104.944 731,105.5C 731.5,271.5 731.667,437.5 731.5,603.5C 731.167,603.5 730.833,603.5 730.5,603.5C 730.831,437.126 730.497,270.793 729.5,104.5 Z"/></g>
<g><path style="opacity:1" fill="#e4fcaa" d="M 536.5,261.5 C 537.962,276.308 538.796,291.308 539,306.5C 539.642,308.762 540.475,310.929 541.5,313C 540.635,324.1 539.968,335.267 539.5,346.5C 538.171,318.337 537.171,290.003 536.5,261.5 Z"/></g>
<g><path style="opacity:1" fill="#72d093" d="M 631.5,155.5 C 632.167,155.5 632.833,155.5 633.5,155.5C 634.315,196.433 634.981,237.433 635.5,278.5C 635.5,292.5 635.5,306.5 635.5,320.5C 639.042,320.813 642.375,320.479 645.5,319.5C 654.162,318.782 662.828,318.116 671.5,317.5C 671.5,318.167 671.5,318.833 671.5,319.5C 658.864,320.877 646.197,321.877 633.5,322.5C 633.21,267.16 632.543,211.827 631.5,156.5C 631.5,156.167 631.5,155.833 631.5,155.5 Z"/></g>
<g><path style="opacity:1" fill="#c7f9b2" d="M 635.5,278.5 C 636.496,291.99 636.829,305.656 636.5,319.5C 639.5,319.5 642.5,319.5 645.5,319.5C 642.375,320.479 639.042,320.813 635.5,320.5C 635.5,306.5 635.5,292.5 635.5,278.5 Z"/></g>
<g><path style="opacity:1" fill="#d5ccd4" d="M 524.5,152.5 C 527.252,222.651 529.252,292.984 530.5,363.5C 530.772,375.538 530.438,387.538 529.5,399.5C 528.505,388.012 528.172,376.345 528.5,364.5C 528.642,348.31 527.975,332.31 526.5,316.5C 525.893,284.832 525.226,253.165 524.5,221.5C 524.5,199.833 524.5,178.167 524.5,156.5C 524.5,155.167 524.5,153.833 524.5,152.5 Z"/></g>
<g><path style="opacity:1" fill="#f1eaa1" d="M 625.5,158.5 C 626.295,216.165 626.962,273.832 627.5,331.5C 642.199,330.563 656.866,329.23 671.5,327.5C 671.833,327.5 672.167,327.5 672.5,327.5C 672.5,329.5 672.5,331.5 672.5,333.5C 656.539,335.225 640.539,336.558 624.5,337.5C 623.797,278.163 623.297,218.83 623,159.5C 623.671,158.748 624.504,158.414 625.5,158.5 Z"/></g>
<g><path style="opacity:1" fill="#fafda2" d="M 670.5,109.5 C 670.297,111.044 669.63,112.378 668.5,113.5C 671.375,114.081 674.042,115.081 676.5,116.5C 673.36,117.091 670.36,117.924 667.5,119C 669.701,120.043 672.034,120.877 674.5,121.5C 669.318,122.776 669.318,123.443 674.5,123.5C 660.599,128.988 646.599,134.488 632.5,140C 631.565,142.381 631.232,144.881 631.5,147.5C 626.476,148.313 624.476,151.313 625.5,156.5C 623.883,157.038 622.216,157.371 620.5,157.5C 621.15,218.5 621.816,279.5 622.5,340.5C 623.622,341.156 624.955,341.489 626.5,341.5C 640.621,341.068 654.621,339.568 668.5,337C 669.056,336.617 669.389,336.117 669.5,335.5C 671.167,335.5 672.833,335.5 674.5,335.5C 674.5,332.833 674.5,330.167 674.5,327.5C 675.568,326.566 676.901,326.232 678.5,326.5C 679.473,324.052 679.806,321.385 679.5,318.5C 681.167,318.5 682.833,318.5 684.5,318.5C 683.432,319.434 682.099,319.768 680.5,319.5C 680.5,321.5 680.5,323.5 680.5,325.5C 681.873,325.343 683.207,325.51 684.5,326C 681.5,326.833 678.5,327.667 675.5,328.5C 678.087,329.619 680.42,330.953 682.5,332.5C 681.836,334.487 680.669,336.154 679,337.5C 678.51,338.793 678.343,340.127 678.5,341.5C 674.654,343.694 672.321,347.027 671.5,351.5C 669.827,352.343 668.66,353.676 668,355.5C 667.501,359.152 667.335,362.818 667.5,366.5C 656.491,366.6 645.491,366.934 634.5,367.5C 634.5,370.5 634.5,373.5 634.5,376.5C 632.735,377.461 630.735,377.795 628.5,377.5C 628.5,380.167 628.5,382.833 628.5,385.5C 626.833,385.5 625.167,385.5 623.5,385.5C 622.336,417.664 622.169,449.997 623,482.5C 623.176,486.688 623.676,490.688 624.5,494.5C 624.793,515.844 625.46,537.177 626.5,558.5C 642.342,562.695 658.342,566.028 674.5,568.5C 674.5,565.833 674.5,563.167 674.5,560.5C 676.167,560.5 677.833,560.5 679.5,560.5C 679.5,557.5 679.5,554.5 679.5,551.5C 679.833,551.5 680.167,551.5 680.5,551.5C 681.749,557.632 680.082,562.632 675.5,566.5C 676.277,568.539 677.443,569.205 679,568.5C 679.788,570.165 680.122,571.831 680,573.5C 676.333,574.833 672.667,574.833 669,573.5C 665.989,575 666.489,575.834 670.5,576C 666.397,577.247 662.23,577.081 658,575.5C 657.5,575.833 657,576.167 656.5,576.5C 661.114,578.164 665.781,579.83 670.5,581.5C 667.518,582.332 664.518,582.499 661.5,582C 666.203,583.667 670.87,585.333 675.5,587C 676.167,587.167 676.833,587.333 677.5,587.5C 679.952,584.716 681.952,585.049 683.5,588.5C 685.432,587.48 687.432,587.313 689.5,588C 688.376,588.249 687.376,588.749 686.5,589.5C 687.167,589.833 687.833,590.167 688.5,590.5C 692.817,589.477 697.151,588.977 701.5,589C 698.525,591.004 695.192,592.004 691.5,592C 694.187,592.728 696.52,593.895 698.5,595.5C 647.563,579.71 596.563,564.044 545.5,548.5C 543.445,501.52 542.112,454.52 541.5,407.5C 541.725,394.633 541.058,381.966 539.5,369.5C 539.5,361.833 539.5,354.167 539.5,346.5C 539.968,335.267 540.635,324.1 541.5,313C 540.475,310.929 539.642,308.762 539,306.5C 538.796,291.308 537.962,276.308 536.5,261.5C 535.978,225.485 534.978,189.485 533.5,153.5C 533.5,153.167 533.5,152.833 533.5,152.5C 579.069,138.021 624.736,123.688 670.5,109.5 Z"/></g>
<g><path style="opacity:1" fill="#f4fba5" d="M 554.5,185.5 C 555.498,222.33 555.832,259.33 555.5,296.5C 555.5,308.167 555.5,319.833 555.5,331.5C 559.702,331.817 563.702,331.483 567.5,330.5C 576.195,329.397 584.862,328.397 593.5,327.5C 593.5,329.5 593.5,331.5 593.5,333.5C 581.385,335.541 569.051,336.874 556.5,337.5C 555.167,337.5 553.833,337.5 552.5,337.5C 552.83,321.658 552.496,305.991 551.5,290.5C 551.5,255.833 551.5,221.167 551.5,186.5C 552.209,185.596 553.209,185.263 554.5,185.5 Z"/></g>
<g><path style="opacity:1" fill="#ffeaab" d="M 543.5,220.5 C 544.499,262.997 544.832,305.663 544.5,348.5C 548.167,348.5 551.833,348.5 555.5,348.5C 554.152,349.601 552.652,350.601 551,351.5C 548.619,350.565 546.119,350.232 543.5,350.5C 542.997,346.317 542.331,342.151 541.5,338C 541.796,336.112 542.296,334.278 543,332.5C 543.5,295.168 543.667,257.835 543.5,220.5 Z"/></g>
<g><path style="opacity:1" fill="#8c8e57" d="M 600.5,243.5 C 601.498,269.995 601.831,296.661 601.5,323.5C 601.5,323.833 601.5,324.167 601.5,324.5C 601.5,325.167 601.5,325.833 601.5,326.5C 601.5,329.5 601.5,332.5 601.5,335.5C 600.5,335.5 599.5,335.5 598.5,335.5C 600.48,305.057 601.147,274.391 600.5,243.5 Z"/></g>
<g><path style="opacity:1" fill="#60633d" d="M 549.5,300.5 C 550.495,313.323 550.829,326.323 550.5,339.5C 552.5,339.5 554.5,339.5 556.5,339.5C 554.393,340.468 552.059,340.802 549.5,340.5C 549.5,327.167 549.5,313.833 549.5,300.5 Z"/></g>
<g><path style="opacity:1" fill="#66cb90" d="M 554.5,185.5 C 554.842,184.662 555.508,184.328 556.5,184.5C 557.167,184.5 557.5,184.833 557.5,185.5C 557.5,233.5 557.5,281.5 557.5,329.5C 559.735,329.795 561.735,329.461 563.5,328.5C 571.139,327.321 578.806,326.321 586.5,325.5C 588.833,325.5 591.167,325.5 593.5,325.5C 593.5,326.167 593.5,326.833 593.5,327.5C 584.862,328.397 576.195,329.397 567.5,330.5C 563.833,330.5 560.167,330.5 556.5,330.5C 556.828,318.988 556.495,307.654 555.5,296.5C 555.832,259.33 555.498,222.33 554.5,185.5 Z"/></g>
<g><path style="opacity:1" fill="#1d1d11" d="M 550.5,183.5 C 550.263,184.791 550.596,185.791 551.5,186.5C 551.5,221.167 551.5,255.833 551.5,290.5C 551.5,306.5 551.5,322.5 551.5,338.5C 553.415,338.784 555.081,338.451 556.5,337.5C 569.051,336.874 581.385,335.541 593.5,333.5C 594.5,333.5 595.5,333.5 596.5,333.5C 597.167,333.5 597.833,333.5 598.5,333.5C 599.167,288.5 599.833,243.5 600.5,198.5C 600.5,213.5 600.5,228.5 600.5,243.5C 601.147,274.391 600.48,305.057 598.5,335.5C 597.833,335.5 597.167,335.5 596.5,335.5C 595.209,335.263 594.209,335.596 593.5,336.5C 581.15,337.302 568.816,338.302 556.5,339.5C 554.5,339.5 552.5,339.5 550.5,339.5C 550.829,326.323 550.495,313.323 549.5,300.5C 549.832,262.663 549.498,224.996 548.5,187.5C 548.5,186.833 548.5,186.167 548.5,185.5C 548.5,185.167 548.5,184.833 548.5,184.5C 549.167,184.167 549.833,183.833 550.5,183.5 Z"/></g>
<g><path style="opacity:1" fill="#b3eca1" d="M 555.5,296.5 C 556.495,307.654 556.828,318.988 556.5,330.5C 560.167,330.5 563.833,330.5 567.5,330.5C 563.702,331.483 559.702,331.817 555.5,331.5C 555.5,319.833 555.5,308.167 555.5,296.5 Z"/></g>
<g><path style="opacity:1" fill="#aef2ab" d="M 604.5,221.5 C 605.498,255.663 605.832,289.996 605.5,324.5C 604.167,324.5 602.833,324.5 601.5,324.5C 601.5,324.167 601.5,323.833 601.5,323.5C 602.5,323.5 603.5,323.5 604.5,323.5C 604.5,289.5 604.5,255.5 604.5,221.5 Z"/></g>
<g><path style="opacity:1" fill="#bebe88" d="M 551.5,290.5 C 552.496,305.991 552.83,321.658 552.5,337.5C 553.833,337.5 555.167,337.5 556.5,337.5C 555.081,338.451 553.415,338.784 551.5,338.5C 551.5,322.5 551.5,306.5 551.5,290.5 Z"/></g>
<g><path style="opacity:1" fill="#f6959b" d="M 593.5,255.5 C 594.332,278.663 594.832,301.996 595,325.5C 595.5,302.169 595.667,278.836 595.5,255.5C 595.833,255.5 596.167,255.5 596.5,255.5C 596.5,281.5 596.5,307.5 596.5,333.5C 595.5,333.5 594.5,333.5 593.5,333.5C 593.5,331.5 593.5,329.5 593.5,327.5C 593.5,326.833 593.5,326.167 593.5,325.5C 593.5,302.167 593.5,278.833 593.5,255.5 Z"/></g>
<g><path style="opacity:1" fill="#f4f9a3" d="M 604.5,221.5 C 604.5,255.5 604.5,289.5 604.5,323.5C 603.5,323.5 602.5,323.5 601.5,323.5C 601.831,296.661 601.498,269.995 600.5,243.5C 600.5,228.5 600.5,213.5 600.5,198.5C 600.5,185.5 600.5,172.5 600.5,159.5C 586.091,164.303 571.758,169.303 557.5,174.5C 556.088,172.77 556.422,171.27 558.5,170C 573.678,163.997 589.012,158.497 604.5,153.5C 604.5,176.167 604.5,198.833 604.5,221.5 Z"/></g>
<g><path style="opacity:1" fill="#c2f4aa" d="M 557.5,185.5 C 558.499,232.997 558.832,280.664 558.5,328.5C 560.167,328.5 561.833,328.5 563.5,328.5C 561.735,329.461 559.735,329.795 557.5,329.5C 557.5,281.5 557.5,233.5 557.5,185.5 Z"/></g>
<g><path style="opacity:1" fill="#e8627e" d="M 548.5,185.5 C 548.5,186.167 548.5,186.833 548.5,187.5C 546.504,240.156 545.838,293.156 546.5,346.5C 562.134,344.533 577.801,342.867 593.5,341.5C 594.302,340.048 594.802,338.382 595,336.5C 595.497,338.81 595.663,341.143 595.5,343.5C 593.585,343.216 591.919,343.549 590.5,344.5C 578.916,344.923 567.582,346.256 556.5,348.5C 556.167,348.5 555.833,348.5 555.5,348.5C 551.833,348.5 548.167,348.5 544.5,348.5C 544.832,305.663 544.499,262.997 543.5,220.5C 543.333,209.162 543.5,197.828 544,186.5C 545.356,185.62 546.856,185.286 548.5,185.5 Z"/></g>
<g><path style="opacity:1" fill="#72d093" d="M 601.5,326.5 C 601.5,325.833 601.5,325.167 601.5,324.5C 602.833,324.5 604.167,324.5 605.5,324.5C 605.832,289.996 605.498,255.663 604.5,221.5C 604.5,198.833 604.5,176.167 604.5,153.5C 589.012,158.497 573.678,163.997 558.5,170C 556.422,171.27 556.088,172.77 557.5,174.5C 556.791,175.404 555.791,175.737 554.5,175.5C 554.5,173.167 554.5,170.833 554.5,168.5C 569.81,163.676 584.81,158.176 599.5,152C 602.063,150.921 604.729,150.421 607.5,150.5C 607.5,209.167 607.5,267.833 607.5,326.5C 605.5,326.5 603.5,326.5 601.5,326.5 Z"/></g>
<g><path style="opacity:1" fill="#fef4b1" d="M 593.5,255.5 C 593.5,278.833 593.5,302.167 593.5,325.5C 591.167,325.5 588.833,325.5 586.5,325.5C 588.265,324.539 590.265,324.205 592.5,324.5C 592.5,273.833 592.5,223.167 592.5,172.5C 591.167,172.5 589.833,172.5 588.5,172.5C 589.78,171.069 591.447,170.402 593.5,170.5C 593.5,198.833 593.5,227.167 593.5,255.5 Z"/></g>
<g><path style="opacity:1" fill="#f6f7ab" d="M 598.5,333.5 C 597.833,333.5 597.167,333.5 596.5,333.5C 596.5,307.5 596.5,281.5 596.5,255.5C 596.5,226.167 596.5,196.833 596.5,167.5C 595.209,167.263 594.209,167.596 593.5,168.5C 579.07,173.214 564.737,178.214 550.5,183.5C 550.286,181.856 550.62,180.356 551.5,179C 567.095,173.191 582.762,167.691 598.5,162.5C 598.5,219.5 598.5,276.5 598.5,333.5 Z"/></g>
<g><path style="opacity:1" fill="#ffc0ac" d="M 593.5,168.5 C 594.209,167.596 595.209,167.263 596.5,167.5C 596.5,196.833 596.5,226.167 596.5,255.5C 596.167,255.5 595.833,255.5 595.5,255.5C 596.159,226.147 595.492,197.147 593.5,168.5 Z"/></g>
<g><path style="opacity:1" fill="#e05677" d="M 593.5,168.5 C 595.492,197.147 596.159,226.147 595.5,255.5C 595.667,278.836 595.5,302.169 595,325.5C 594.832,301.996 594.332,278.663 593.5,255.5C 593.5,227.167 593.5,198.833 593.5,170.5C 591.447,170.402 589.78,171.069 588.5,172.5C 577.547,175.987 566.88,179.987 556.5,184.5C 555.508,184.328 554.842,184.662 554.5,185.5C 553.209,185.263 552.209,185.596 551.5,186.5C 550.596,185.791 550.263,184.791 550.5,183.5C 564.737,178.214 579.07,173.214 593.5,168.5 Z"/></g>
<g><path style="opacity:1" fill="#33351c" d="M 600.5,198.5 C 599.833,243.5 599.167,288.5 598.5,333.5C 598.5,276.5 598.5,219.5 598.5,162.5C 582.762,167.691 567.095,173.191 551.5,179C 550.62,180.356 550.286,181.856 550.5,183.5C 549.833,183.833 549.167,184.167 548.5,184.5C 548.338,182.473 548.505,180.473 549,178.5C 551.058,177.771 552.891,176.771 554.5,175.5C 555.791,175.737 556.791,175.404 557.5,174.5C 571.758,169.303 586.091,164.303 600.5,159.5C 600.5,172.5 600.5,185.5 600.5,198.5 Z"/></g>
<g><path style="opacity:1" fill="#fbfea1" d="M 588.5,172.5 C 589.833,172.5 591.167,172.5 592.5,172.5C 592.5,223.167 592.5,273.833 592.5,324.5C 590.265,324.205 588.265,324.539 586.5,325.5C 578.806,326.321 571.139,327.321 563.5,328.5C 561.833,328.5 560.167,328.5 558.5,328.5C 558.832,280.664 558.499,232.997 557.5,185.5C 557.5,184.833 557.167,184.5 556.5,184.5C 566.88,179.987 577.547,175.987 588.5,172.5 Z"/></g>
<g><path style="opacity:1" fill="#42c79d" d="M 682.5,332.5 C 686.846,332.334 691.179,332.501 695.5,333C 704.72,340.035 704.72,347.202 695.5,354.5C 694.914,343.941 689.247,339.608 678.5,341.5C 678.343,340.127 678.51,338.793 679,337.5C 680.669,336.154 681.836,334.487 682.5,332.5 Z"/></g>
<g><path style="opacity:1" fill="#ef9294" d="M 596.5,335.5 C 597.055,339.012 596.388,342.012 594.5,344.5C 593.167,344.5 591.833,344.5 590.5,344.5C 591.919,343.549 593.585,343.216 595.5,343.5C 595.663,341.143 595.497,338.81 595,336.5C 594.802,338.382 594.302,340.048 593.5,341.5C 593.5,339.833 593.5,338.167 593.5,336.5C 594.209,335.596 595.209,335.263 596.5,335.5 Z"/></g>
<g><path style="opacity:1" fill="#efe79f" d="M 548.5,187.5 C 549.498,224.996 549.832,262.663 549.5,300.5C 549.5,313.833 549.5,327.167 549.5,340.5C 552.059,340.802 554.393,340.468 556.5,339.5C 568.816,338.302 581.15,337.302 593.5,336.5C 593.5,338.167 593.5,339.833 593.5,341.5C 577.801,342.867 562.134,344.533 546.5,346.5C 545.838,293.156 546.504,240.156 548.5,187.5 Z"/></g>
<g><path style="opacity:1" fill="#feeeaa" d="M 669.5,335.5 C 669.389,336.117 669.056,336.617 668.5,337C 654.621,339.568 640.621,341.068 626.5,341.5C 624.955,341.489 623.622,341.156 622.5,340.5C 638.193,339.08 653.86,337.413 669.5,335.5 Z"/></g>
<g><path style="opacity:1" fill="#080504" d="M 678.5,341.5 C 689.247,339.608 694.914,343.941 695.5,354.5C 694.692,357.45 693.358,360.117 691.5,362.5C 689.315,362.704 687.315,363.37 685.5,364.5C 683.833,364.5 682.167,364.5 680.5,364.5C 676.281,363.452 673.447,360.785 672,356.5C 671.506,354.866 671.34,353.199 671.5,351.5C 672.321,347.027 674.654,343.694 678.5,341.5 Z"/></g>
<g><path style="opacity:1" fill="#feefaa" d="M 590.5,344.5 C 591.833,344.5 593.167,344.5 594.5,344.5C 594.144,345.87 593.31,346.87 592,347.5C 589.709,346.928 587.375,346.594 585,346.5C 575.503,347.278 566.003,347.944 556.5,348.5C 567.582,346.256 578.916,344.923 590.5,344.5 Z"/></g>
<g><path style="opacity:1" fill="#f1b4e7" d="M 526.5,316.5 C 527.975,332.31 528.642,348.31 528.5,364.5C 527.276,348.68 526.609,332.68 526.5,316.5 Z"/></g>
<g><path style="opacity:1" fill="#e45ccb" d="M 523.5,215.5 C 523.205,217.735 523.539,219.735 524.5,221.5C 525.226,253.165 525.893,284.832 526.5,316.5C 526.609,332.68 527.276,348.68 528.5,364.5C 528.172,376.345 528.505,388.012 529.5,399.5C 529.5,399.833 529.5,400.167 529.5,400.5C 529.99,420.497 530.323,440.497 530.5,460.5C 530.828,472.012 530.495,483.346 529.5,494.5C 529.28,475.326 528.613,456.326 527.5,437.5C 527.286,420.497 526.952,403.497 526.5,386.5C 526.546,370.314 525.88,354.314 524.5,338.5C 524.491,319.826 524.157,301.159 523.5,282.5C 523.293,269.829 522.96,257.163 522.5,244.5C 522.173,234.652 522.506,224.986 523.5,215.5 Z"/></g>
<g><path style="opacity:1" fill="#ef3286" d="M 671.5,351.5 C 671.34,353.199 671.506,354.866 672,356.5C 673.447,360.785 676.281,363.452 680.5,364.5C 680.611,365.117 680.944,365.617 681.5,366C 677.179,366.499 672.846,366.666 668.5,366.5C 668.167,366.5 667.833,366.5 667.5,366.5C 667.335,362.818 667.501,359.152 668,355.5C 668.66,353.676 669.827,352.343 671.5,351.5 Z"/></g>
<g><path style="opacity:1" fill="#d9477d" d="M 691.5,362.5 C 690.558,366.09 688.558,368.757 685.5,370.5C 685.5,368.5 685.5,366.5 685.5,364.5C 687.315,363.37 689.315,362.704 691.5,362.5 Z"/></g>
<g><path style="opacity:1" fill="#691f7d" d="M 680.5,364.5 C 682.167,364.5 683.833,364.5 685.5,364.5C 685.5,366.5 685.5,368.5 685.5,370.5C 685.5,370.833 685.5,371.167 685.5,371.5C 684.833,371.5 684.167,371.5 683.5,371.5C 683.5,370.5 683.5,369.5 683.5,368.5C 678.833,368.5 674.167,368.5 669.5,368.5C 669.167,368.5 668.833,368.5 668.5,368.5C 668.5,367.833 668.5,367.167 668.5,366.5C 672.846,366.666 677.179,366.499 681.5,366C 680.944,365.617 680.611,365.117 680.5,364.5 Z"/></g>
<g><path style="opacity:1" fill="#70d096" d="M 667.5,366.5 C 667.833,366.5 668.167,366.5 668.5,366.5C 668.5,367.167 668.5,367.833 668.5,368.5C 658.013,369.494 647.346,369.828 636.5,369.5C 636.5,371.833 636.5,374.167 636.5,376.5C 635.833,376.5 635.167,376.5 634.5,376.5C 634.5,373.5 634.5,370.5 634.5,367.5C 645.491,366.934 656.491,366.6 667.5,366.5 Z"/></g>
<g><path style="opacity:1" fill="#ef3c8a" d="M 669.5,368.5 C 674.167,368.5 678.833,368.5 683.5,368.5C 683.5,369.5 683.5,370.5 683.5,371.5C 683.5,371.833 683.5,372.167 683.5,372.5C 679.888,373.511 676.221,373.678 672.5,373C 671.117,371.729 670.117,370.229 669.5,368.5 Z"/></g>
<g><path style="opacity:1" fill="#8bda98" d="M 607.5,533.5 C 607.667,481.832 607.5,430.166 607,378.5C 606.5,429.499 606.333,480.499 606.5,531.5C 605.167,531.5 603.833,531.5 602.5,531.5C 603.209,530.596 604.209,530.263 605.5,530.5C 605.5,477.5 605.5,424.5 605.5,371.5C 589.855,372.624 574.188,373.29 558.5,373.5C 558.5,375.833 558.5,378.167 558.5,380.5C 557.833,380.5 557.167,380.5 556.5,380.5C 556.5,377.5 556.5,374.5 556.5,371.5C 573.478,370.343 590.478,369.677 607.5,369.5C 608.823,424.306 608.823,478.973 607.5,533.5 Z"/></g>
<g><path style="opacity:1" fill="#080701" d="M 673.5,375.5 C 675.167,375.5 676.833,375.5 678.5,375.5C 678.832,422.67 678.499,469.67 677.5,516.5C 677.5,470.167 677.5,423.833 677.5,377.5C 676.167,376.833 674.833,376.167 673.5,375.5 Z"/></g>
<g><path style="opacity:1" fill="#70cdee" d="M 769.5,344.5 C 770.873,344.343 772.207,344.51 773.5,345C 785.491,352.999 797.824,360.499 810.5,367.5C 810.833,368.667 811.167,369.833 811.5,371C 810.094,380.469 808.927,389.969 808,399.5C 807.964,401.941 807.131,403.941 805.5,405.5C 804.914,405.291 804.414,404.957 804,404.5C 803.833,403 803.667,401.5 803.5,400C 805.316,390.736 806.649,381.403 807.5,372C 807.167,371.167 806.833,370.333 806.5,369.5C 794.752,362.701 783.085,356.035 771.5,349.5C 766.247,368.679 760.913,387.846 755.5,407C 755.585,408.107 755.919,409.107 756.5,410C 763.672,414.419 770.672,419.085 777.5,424C 778.5,424.667 779.5,424.667 780.5,424C 784.672,410.471 787.172,396.637 788,382.5C 784.26,379.049 780.427,375.715 776.5,372.5C 775.914,372.709 775.414,373.043 775,373.5C 772.507,380.652 769.341,387.485 765.5,394C 767.187,397.849 770.187,399.682 774.5,399.5C 774.508,396.455 774.841,393.455 775.5,390.5C 776.5,390.5 777.5,390.5 778.5,390.5C 778.55,395.552 778.05,400.552 777,405.5C 776.439,406.022 775.772,406.355 775,406.5C 771.177,404.015 767.344,401.515 763.5,399C 762.196,398.196 761.529,397.029 761.5,395.5C 764.606,385.289 769.272,375.955 775.5,367.5C 781.868,371.588 787.702,376.254 793,381.5C 790.397,396.092 787.73,410.759 785,425.5C 784.735,427.651 783.735,429.318 782,430.5C 772.436,423.964 762.602,417.798 752.5,412C 751.106,411.044 750.439,409.711 750.5,408C 756.465,386.674 762.798,365.507 769.5,344.5 Z"/></g>
<g><path style="opacity:1" fill="#f8fea7" d="M 634.5,379.5 C 634.5,381.167 634.5,382.833 634.5,384.5C 633.167,384.5 631.833,384.5 630.5,384.5C 630.5,382.833 630.5,381.167 630.5,379.5C 631.833,379.5 633.167,379.5 634.5,379.5 Z"/></g>
<g><path style="opacity:1" fill="#64cc8e" d="M 634.5,379.5 C 635.167,379.5 635.833,379.5 636.5,379.5C 636.923,381.781 636.256,383.448 634.5,384.5C 634.5,382.833 634.5,381.167 634.5,379.5 Z"/></g>
<g><path style="opacity:1" fill="#efade3" d="M 524.5,338.5 C 525.88,354.314 526.546,370.314 526.5,386.5C 526.167,386.5 525.833,386.5 525.5,386.5C 525.167,370.5 524.833,354.5 524.5,338.5 Z"/></g>
<g><path style="opacity:1" fill="#66c18f" d="M 556.5,382.5 C 557.167,382.5 557.833,382.5 558.5,382.5C 558.5,384.5 558.5,386.5 558.5,388.5C 557.833,388.5 557.167,388.5 556.5,388.5C 556.5,386.5 556.5,384.5 556.5,382.5 Z"/></g>
<g><path style="opacity:1" fill="#f0f3a5" d="M 556.5,382.5 C 556.5,384.5 556.5,386.5 556.5,388.5C 555.167,388.5 553.833,388.5 552.5,388.5C 552.5,386.5 552.5,384.5 552.5,382.5C 553.833,382.5 555.167,382.5 556.5,382.5 Z"/></g>
<g><path style="opacity:1" fill="#d85e7d" d="M 630.5,385.5 C 631.833,385.5 633.167,385.5 634.5,385.5C 634.5,386.167 634.5,386.833 634.5,387.5C 633.167,387.5 631.833,387.5 630.5,387.5C 630.5,386.833 630.5,386.167 630.5,385.5 Z"/></g>
<g><path style="opacity:1" fill="#524a6c" d="M 634.5,385.5 C 635.167,385.5 635.833,385.5 636.5,385.5C 636.5,386.167 636.5,386.833 636.5,387.5C 635.833,387.5 635.167,387.5 634.5,387.5C 634.5,386.833 634.5,386.167 634.5,385.5 Z"/></g>
<g><path style="opacity:1" fill="#70d093" d="M 531.5,153.5 C 532.167,153.5 532.833,153.5 533.5,153.5C 534.978,189.485 535.978,225.485 536.5,261.5C 537.171,290.003 538.171,318.337 539.5,346.5C 539.5,354.167 539.5,361.833 539.5,369.5C 539.275,382.367 539.942,395.034 541.5,407.5C 542.112,454.52 543.445,501.52 545.5,548.5C 596.563,564.044 647.563,579.71 698.5,595.5C 704.374,597.569 710.374,599.235 716.5,600.5C 716.5,601.167 716.5,601.833 716.5,602.5C 710.077,601.478 703.744,599.978 697.5,598C 646.043,581.612 594.376,565.779 542.5,550.5C 538.98,418.165 535.313,285.832 531.5,153.5 Z"/></g>
<g><path style="opacity:1" fill="#fbfea1" d="M 665.5,386.5 C 667.5,386.5 669.5,386.5 671.5,386.5C 671.5,439.833 671.5,493.167 671.5,546.5C 660.919,543.917 650.252,541.583 639.5,539.5C 639.667,512.831 639.5,486.165 639,459.5C 638.825,454.981 638.325,450.647 637.5,446.5C 637.821,426.757 637.487,407.091 636.5,387.5C 646.156,386.908 655.822,386.575 665.5,386.5 Z"/></g>
<g><path style="opacity:1" fill="#db607a" d="M 552.5,388.5 C 553.833,388.5 555.167,388.5 556.5,388.5C 556.5,389.167 556.5,389.833 556.5,390.5C 555.167,390.5 553.833,390.5 552.5,390.5C 552.5,389.833 552.5,389.167 552.5,388.5 Z"/></g>
<g><path style="opacity:1" fill="#55366b" d="M 556.5,388.5 C 557.167,388.5 557.833,388.5 558.5,388.5C 558.5,389.167 558.5,389.833 558.5,390.5C 557.833,390.5 557.167,390.5 556.5,390.5C 556.5,389.833 556.5,389.167 556.5,388.5 Z"/></g>
<g><path style="opacity:1" fill="#f7faa3" d="M 668.5,368.5 C 668.833,368.5 669.167,368.5 669.5,368.5C 670.117,370.229 671.117,371.729 672.5,373C 676.221,373.678 679.888,373.511 683.5,372.5C 683.5,372.833 683.5,373.167 683.5,373.5C 683.159,431.88 682.159,490.213 680.5,548.5C 680.167,548.5 679.833,548.5 679.5,548.5C 679.832,490.664 679.499,432.998 678.5,375.5C 676.833,375.5 675.167,375.5 673.5,375.5C 661.189,376.37 648.856,376.704 636.5,376.5C 636.5,374.167 636.5,371.833 636.5,369.5C 647.346,369.828 658.013,369.494 668.5,368.5 Z"/></g>
<g><path style="opacity:1" fill="#1a1a0d" d="M 556.5,380.5 C 557.167,380.5 557.833,380.5 558.5,380.5C 558.833,380.5 559.167,380.5 559.5,380.5C 560.167,380.5 560.833,380.5 561.5,380.5C 563.948,381.473 566.615,381.806 569.5,381.5C 566.038,382.482 562.371,382.815 558.5,382.5C 557.833,382.5 557.167,382.5 556.5,382.5C 555.167,382.5 553.833,382.5 552.5,382.5C 552.5,384.5 552.5,386.5 552.5,388.5C 552.5,389.167 552.5,389.833 552.5,390.5C 552.5,398.833 552.5,407.167 552.5,415.5C 552.832,451.671 552.498,487.671 551.5,523.5C 551.593,479.496 551.259,435.496 550.5,391.5C 550.5,390.833 550.5,390.167 550.5,389.5C 550.5,386.833 550.5,384.167 550.5,381.5C 552.265,380.539 554.265,380.205 556.5,380.5 Z"/></g>
<g><path style="opacity:1" fill="#f9fda2" d="M 594.5,528.5 C 582.731,526.846 571.231,524.179 560,520.5C 559.5,477.501 559.333,434.501 559.5,391.5C 558.5,391.5 557.5,391.5 556.5,391.5C 557.09,435.164 557.59,478.831 558,522.5C 569.94,526.254 582.106,528.921 594.5,530.5C 594.5,530.833 594.5,531.167 594.5,531.5C 594.5,534.167 594.5,536.833 594.5,539.5C 580.803,536.606 567.136,533.606 553.5,530.5C 553.832,491.996 553.499,453.663 552.5,415.5C 552.5,407.167 552.5,398.833 552.5,390.5C 553.833,390.5 555.167,390.5 556.5,390.5C 557.167,390.5 557.833,390.5 558.5,390.5C 570.505,390.3 582.505,389.966 594.5,389.5C 594.5,435.833 594.5,482.167 594.5,528.5 Z"/></g>
<g><path style="opacity:1" fill="#0c0f07" d="M 590.5,379.5 C 593.833,379.5 597.167,379.5 600.5,379.5C 600.5,391.5 600.5,403.5 600.5,415.5C 600.784,417.415 600.451,419.081 599.5,420.5C 599.5,407.167 599.5,393.833 599.5,380.5C 594.637,380.181 589.97,380.514 585.5,381.5C 580.167,381.5 574.833,381.5 569.5,381.5C 566.615,381.806 563.948,381.473 561.5,380.5C 571.156,379.908 580.822,379.575 590.5,379.5 Z"/></g>
<g><path style="opacity:1" fill="#b4b1b3" d="M 530.5,363.5 C 531.929,391.66 532.929,419.993 533.5,448.5C 532.833,444.833 532.167,441.167 531.5,437.5C 532.146,424.788 531.48,412.455 529.5,400.5C 529.5,400.167 529.5,399.833 529.5,399.5C 530.438,387.538 530.772,375.538 530.5,363.5 Z"/></g>
<g><path style="opacity:1" fill="#3e3e23" d="M 722.5,102.5 C 723.167,102.5 723.5,102.833 723.5,103.5C 723.5,201.5 723.5,299.5 723.5,397.5C 722.502,421.994 722.169,446.661 722.5,471.5C 722.167,471.5 721.833,471.5 721.5,471.5C 721.5,433.5 721.5,395.5 721.5,357.5C 722.499,272.668 722.833,187.668 722.5,102.5 Z"/></g>
<g><path style="opacity:1" fill="#1d1e11" d="M 673.5,375.5 C 674.833,376.167 676.167,376.833 677.5,377.5C 677.167,377.5 676.833,377.5 676.5,377.5C 663.12,377.439 649.787,378.105 636.5,379.5C 635.833,379.5 635.167,379.5 634.5,379.5C 633.167,379.5 631.833,379.5 630.5,379.5C 630.5,381.167 630.5,382.833 630.5,384.5C 630.5,384.833 630.5,385.167 630.5,385.5C 630.5,386.167 630.5,386.833 630.5,387.5C 630.5,389.167 630.5,390.833 630.5,392.5C 630.5,403.5 630.5,414.5 630.5,425.5C 630.83,443.008 630.497,460.341 629.5,477.5C 629.627,447.826 629.294,418.16 628.5,388.5C 628.5,387.5 628.5,386.5 628.5,385.5C 628.5,382.833 628.5,380.167 628.5,377.5C 630.735,377.795 632.735,377.461 634.5,376.5C 635.167,376.5 635.833,376.5 636.5,376.5C 648.856,376.704 661.189,376.37 673.5,375.5 Z"/></g>
<g><path style="opacity:1" fill="#c6f4ab" d="M 539.5,369.5 C 541.058,381.966 541.725,394.633 541.5,407.5C 539.942,395.034 539.275,382.367 539.5,369.5 Z"/></g>
<g><path style="opacity:1" fill="#f0dbed" d="M 529.5,400.5 C 531.48,412.455 532.146,424.788 531.5,437.5C 531.5,445.167 531.5,452.833 531.5,460.5C 531.167,460.5 530.833,460.5 530.5,460.5C 530.323,440.497 529.99,420.497 529.5,400.5 Z"/></g>
<g><path style="opacity:1" fill="#f9d7f2" d="M 525.5,386.5 C 525.833,386.5 526.167,386.5 526.5,386.5C 526.952,403.497 527.286,420.497 527.5,437.5C 525.809,420.698 525.142,403.698 525.5,386.5 Z"/></g>
<g><path style="opacity:1" fill="#3c3d18" d="M 590.5,379.5 C 593.962,378.518 597.629,378.185 601.5,378.5C 601.5,390.833 601.5,403.167 601.5,415.5C 601.167,415.5 600.833,415.5 600.5,415.5C 600.5,403.5 600.5,391.5 600.5,379.5C 597.167,379.5 593.833,379.5 590.5,379.5 Z"/></g>
<g><path style="opacity:1" fill="#faf8a8" d="M 676.5,377.5 C 676.667,433.834 676.5,490.168 676,546.5C 675.833,491.998 675.333,437.665 674.5,383.5C 672.5,383.5 670.5,383.5 668.5,383.5C 657.762,383.426 647.095,384.092 636.5,385.5C 635.833,385.5 635.167,385.5 634.5,385.5C 633.167,385.5 631.833,385.5 630.5,385.5C 630.5,385.167 630.5,384.833 630.5,384.5C 631.833,384.5 633.167,384.5 634.5,384.5C 636.256,383.448 636.923,381.781 636.5,379.5C 649.787,378.105 663.12,377.439 676.5,377.5 Z"/></g>
<g><path style="opacity:1" fill="#d9feb0" d="M 683.5,373.5 C 683.5,431.833 683.5,490.167 683.5,548.5C 682.5,548.5 681.5,548.5 680.5,548.5C 682.159,490.213 683.159,431.88 683.5,373.5 Z"/></g>
<g><path style="opacity:1" fill="#e95a7d" d="M 596.5,483.5 C 596.5,498.833 596.5,514.167 596.5,529.5C 595.833,529.167 595.167,528.833 594.5,528.5C 594.5,482.167 594.5,435.833 594.5,389.5C 582.505,389.966 570.505,390.3 558.5,390.5C 558.5,389.833 558.5,389.167 558.5,388.5C 571.181,388.033 583.848,387.366 596.5,386.5C 596.5,418.833 596.5,451.167 596.5,483.5 Z"/></g>
<g><path style="opacity:1" fill="#eeeba2" d="M 720.5,99.5 C 721.497,185.429 721.83,271.429 721.5,357.5C 721.5,395.5 721.5,433.5 721.5,471.5C 722.161,515.513 721.495,559.179 719.5,602.5C 719.833,532.331 719.499,462.331 718.5,392.5C 718.333,294.499 718.5,196.499 719,98.5C 719.383,99.056 719.883,99.3893 720.5,99.5 Z"/></g>
<g><path style="opacity:1" fill="#edefa4" d="M 630.5,392.5 C 631.327,397.985 631.827,403.652 632,409.5C 632.5,434.164 632.667,458.831 632.5,483.5C 632.5,487.167 632.5,490.833 632.5,494.5C 631.513,489.695 631.179,484.695 631.5,479.5C 631.83,461.326 631.497,443.326 630.5,425.5C 630.5,414.5 630.5,403.5 630.5,392.5 Z"/></g>
<g><path style="opacity:1" fill="#f9fea3" d="M 630.5,387.5 C 631.833,387.5 633.167,387.5 634.5,387.5C 634.5,400.5 634.5,413.5 634.5,426.5C 634.667,441.504 634.5,456.504 634,471.5C 633.824,475.688 633.324,479.688 632.5,483.5C 632.667,458.831 632.5,434.164 632,409.5C 631.827,403.652 631.327,397.985 630.5,392.5C 630.5,390.833 630.5,389.167 630.5,387.5 Z"/></g>
<g><path style="opacity:1" fill="#fdf3a9" d="M 569.5,381.5 C 574.833,381.5 580.167,381.5 585.5,381.5C 589.833,381.5 594.167,381.5 598.5,381.5C 598.667,430.501 598.5,479.501 598,528.5C 597.831,513.328 597.331,498.328 596.5,483.5C 596.5,451.167 596.5,418.833 596.5,386.5C 583.848,387.366 571.181,388.033 558.5,388.5C 558.5,386.5 558.5,384.5 558.5,382.5C 562.371,382.815 566.038,382.482 569.5,381.5 Z"/></g>
<g><path style="opacity:1" fill="#efa1dc" d="M 513.5,441.5 C 516.228,441.171 518.562,441.837 520.5,443.5C 517.933,443.279 515.599,442.612 513.5,441.5 Z"/></g>
<g><path style="opacity:1" fill="#efeca1" d="M 548.5,391.5 C 549.167,391.5 549.833,391.5 550.5,391.5C 551.259,435.496 551.593,479.496 551.5,523.5C 551.223,526.448 551.556,529.281 552.5,532C 566.438,535.48 580.438,538.647 594.5,541.5C 594.5,543.833 594.5,546.167 594.5,548.5C 579.472,545.327 564.472,541.993 549.5,538.5C 548.5,489.505 548.167,440.505 548.5,391.5 Z"/></g>
<g><path style="opacity:1" fill="#e4f2a8" d="M 602.5,531.5 C 602.5,532.167 602.5,532.833 602.5,533.5C 602.81,536.713 602.477,539.713 601.5,542.5C 601.5,517.5 601.5,492.5 601.5,467.5C 601.5,450.167 601.5,432.833 601.5,415.5C 601.5,403.167 601.5,390.833 601.5,378.5C 604.559,373.915 603.892,372.915 599.5,375.5C 596.79,374.389 593.956,373.723 591,373.5C 580.516,374.326 570.016,374.659 559.5,374.5C 559.5,376.5 559.5,378.5 559.5,380.5C 559.167,380.5 558.833,380.5 558.5,380.5C 558.5,378.167 558.5,375.833 558.5,373.5C 574.188,373.29 589.855,372.624 605.5,371.5C 605.5,424.5 605.5,477.5 605.5,530.5C 604.209,530.263 603.209,530.596 602.5,531.5 Z"/></g>
<g><path style="opacity:1" fill="#f9fba1" d="M 601.5,378.5 C 597.629,378.185 593.962,378.518 590.5,379.5C 580.822,379.575 571.156,379.908 561.5,380.5C 560.833,380.5 560.167,380.5 559.5,380.5C 559.5,378.5 559.5,376.5 559.5,374.5C 570.016,374.659 580.516,374.326 591,373.5C 593.956,373.723 596.79,374.389 599.5,375.5C 603.892,372.915 604.559,373.915 601.5,378.5 Z"/></g>
<g><path style="opacity:1" fill="#faf4aa" d="M 723.5,103.5 C 724.5,104.167 725.5,104.833 726.5,105.5C 727.5,271.666 727.833,437.999 727.5,604.5C 727.5,605.167 727.5,605.833 727.5,606.5C 727.5,607.833 727.5,609.167 727.5,610.5C 727.167,611.5 726.5,612.167 725.5,612.5C 724.833,546.833 724.167,481.167 723.5,415.5C 723.5,409.5 723.5,403.5 723.5,397.5C 723.5,299.5 723.5,201.5 723.5,103.5 Z"/></g>
<g><path style="opacity:1" fill="#e24876" d="M 550.5,389.5 C 550.5,390.167 550.5,390.833 550.5,391.5C 549.833,391.5 549.167,391.5 548.5,391.5C 547.833,439.5 547.167,487.5 546.5,535.5C 546.689,486.828 546.356,438.161 545.5,389.5C 547.167,389.5 548.833,389.5 550.5,389.5 Z"/></g>
<g><path style="opacity:1" fill="#ffdbb5" d="M 665.5,386.5 C 667.607,385.532 669.941,385.198 672.5,385.5C 672.5,439.167 672.5,492.833 672.5,546.5C 672.167,546.5 671.833,546.5 671.5,546.5C 671.5,493.167 671.5,439.833 671.5,386.5C 669.5,386.5 667.5,386.5 665.5,386.5 Z"/></g>
<g><path style="opacity:1" fill="#2c2d17" d="M 600.5,415.5 C 600.833,415.5 601.167,415.5 601.5,415.5C 601.5,432.833 601.5,450.167 601.5,467.5C 600.833,491.833 600.167,516.167 599.5,540.5C 599.5,500.5 599.5,460.5 599.5,420.5C 600.451,419.081 600.784,417.415 600.5,415.5 Z"/></g>
<g><path style="opacity:1" fill="#fcdfab" d="M 550.5,381.5 C 550.5,384.167 550.5,386.833 550.5,389.5C 548.833,389.5 547.167,389.5 545.5,389.5C 546.356,438.161 546.689,486.828 546.5,535.5C 546.5,536.833 546.5,538.167 546.5,539.5C 545.037,489.005 544.537,438.338 545,387.5C 546.299,387.034 547.799,387.034 549.5,387.5C 549.205,385.265 549.539,383.265 550.5,381.5 Z"/></g>
<g><path style="opacity:1" fill="#fde2a9" d="M 623.5,385.5 C 624.098,421.83 624.431,458.164 624.5,494.5C 623.676,490.688 623.176,486.688 623,482.5C 622.169,449.997 622.336,417.664 623.5,385.5 Z"/></g>
<g><path style="opacity:1" fill="#efb7e6" d="M 518.5,453.5 C 518.834,456.491 517.834,458.824 515.5,460.5C 515.935,457.843 516.935,455.509 518.5,453.5 Z"/></g>
<g><path style="opacity:1" fill="#e25e76" d="M 668.5,383.5 C 669.919,384.451 671.585,384.784 673.5,384.5C 673.168,438.669 673.501,492.669 674.5,546.5C 674.5,550.167 674.5,553.833 674.5,557.5C 673.833,557.5 673.167,557.5 672.5,557.5C 672.5,554.5 672.5,551.5 672.5,548.5C 672.5,547.833 672.5,547.167 672.5,546.5C 672.5,492.833 672.5,439.167 672.5,385.5C 669.941,385.198 667.607,385.532 665.5,386.5C 655.822,386.575 646.156,386.908 636.5,387.5C 636.5,386.833 636.5,386.167 636.5,385.5C 647.095,384.092 657.762,383.426 668.5,383.5 Z"/></g>
<g><path style="opacity:1" fill="#fafea1" d="M 602.5,379.5 C 603.833,404.158 604.5,429.158 604.5,454.5C 604.167,479.5 603.833,504.5 603.5,529.5C 602.5,479.504 602.167,429.504 602.5,379.5 Z"/></g>
<g><path style="opacity:1" fill="#e2fcac" d="M 637.5,446.5 C 638.325,450.647 638.825,454.981 639,459.5C 639.5,486.165 639.667,512.831 639.5,539.5C 638.395,508.671 637.729,477.671 637.5,446.5 Z"/></g>
<g><path style="opacity:1" fill="#ee4dd1" d="M 478.5,456.5 C 475.833,458.5 473.5,460.833 471.5,463.5C 469.727,464.314 469.227,465.648 470,467.5C 477.904,476.314 485.57,485.314 493,494.5C 494.133,496.211 495.633,496.711 497.5,496C 504.537,479.382 510.871,462.549 516.5,445.5C 512.869,444.588 509.203,444.421 505.5,445C 501.55,449.072 497.717,453.238 494,457.5C 491.542,460.557 492.042,462.89 495.5,464.5C 497.327,462.5 498.994,460.333 500.5,458C 501.793,457.51 503.127,457.343 504.5,457.5C 502.093,462.636 498.926,467.303 495,471.5C 491.081,467.999 489.081,463.666 489,458.5C 493.423,452.072 498.59,446.239 504.5,441C 507.531,440.505 510.531,440.671 513.5,441.5C 515.599,442.612 517.933,443.279 520.5,443.5C 521.124,443.917 521.457,444.584 521.5,445.5C 520.111,447.996 519.111,450.663 518.5,453.5C 516.935,455.509 515.935,457.843 515.5,460.5C 511.326,469.516 507.826,478.849 505,488.5C 502.765,493.752 500.265,498.752 497.5,503.5C 487.843,493.008 478.343,482.341 469,471.5C 467.279,468.685 466.612,465.685 467,462.5C 480.231,450.423 493.064,437.756 505.5,424.5C 506.689,423.571 508.022,423.238 509.5,423.5C 509.649,424.552 509.483,425.552 509,426.5C 498.911,436.757 488.745,446.757 478.5,456.5 Z"/></g>
<g><path style="opacity:1" fill="#f2bce6" d="M 478.5,456.5 C 477.167,459.833 474.833,462.167 471.5,463.5C 473.5,460.833 475.833,458.5 478.5,456.5 Z"/></g>
<g><path style="opacity:1" fill="#494a24" d="M 630.5,425.5 C 631.497,443.326 631.83,461.326 631.5,479.5C 630.505,490.654 630.172,501.988 630.5,513.5C 629.505,501.678 629.172,489.678 629.5,477.5C 630.497,460.341 630.83,443.008 630.5,425.5 Z"/></g>
<g><path style="opacity:1" fill="#e4fcab" d="M 634.5,426.5 C 635.83,464.326 636.497,502.326 636.5,540.5C 635.504,525.342 635.17,510.009 635.5,494.5C 634.5,494.5 633.5,494.5 632.5,494.5C 632.5,490.833 632.5,487.167 632.5,483.5C 633.324,479.688 633.824,475.688 634,471.5C 634.5,456.504 634.667,441.504 634.5,426.5 Z"/></g>
<g><path style="opacity:1" fill="#f5c2ec" d="M 527.5,437.5 C 528.613,456.326 529.28,475.326 529.5,494.5C 529.175,502.352 529.508,510.018 530.5,517.5C 530.5,523.5 530.5,529.5 530.5,535.5C 529.674,530.684 529.174,525.684 529,520.5C 528.27,492.836 527.77,465.17 527.5,437.5 Z"/></g>
<g><path style="opacity:1" fill="#e5dca1" d="M 585.5,381.5 C 589.97,380.514 594.637,380.181 599.5,380.5C 599.5,393.833 599.5,407.167 599.5,420.5C 599.5,460.5 599.5,500.5 599.5,540.5C 598.833,540.5 598.167,540.5 597.5,540.5C 597.5,537.5 597.5,534.5 597.5,531.5C 597.672,530.508 597.338,529.842 596.5,529.5C 596.5,514.167 596.5,498.833 596.5,483.5C 597.331,498.328 597.831,513.328 598,528.5C 598.5,479.501 598.667,430.501 598.5,381.5C 594.167,381.5 589.833,381.5 585.5,381.5 Z"/></g>
<g><path style="opacity:1" fill="#6ed094" d="M 594.5,528.5 C 594.5,529.167 594.5,529.833 594.5,530.5C 582.106,528.921 569.94,526.254 558,522.5C 557.59,478.831 557.09,435.164 556.5,391.5C 557.5,391.5 558.5,391.5 559.5,391.5C 559.333,434.501 559.5,477.501 560,520.5C 571.231,524.179 582.731,526.846 594.5,528.5 Z"/></g>
<g><path style="opacity:1" fill="#ed7ad8" d="M 530.5,460.5 C 530.833,460.5 531.167,460.5 531.5,460.5C 531.618,479.505 531.951,498.505 532.5,517.5C 531.671,510.345 531.171,503.011 531,495.5C 530.5,502.826 530.334,510.159 530.5,517.5C 529.508,510.018 529.175,502.352 529.5,494.5C 530.495,483.346 530.828,472.012 530.5,460.5 Z"/></g>
<g><path style="opacity:1" fill="#f2f8a1" d="M 530.5,153.5 C 530.833,153.5 531.167,153.5 531.5,153.5C 535.313,285.832 538.98,418.165 542.5,550.5C 594.376,565.779 646.043,581.612 697.5,598C 703.744,599.978 710.077,601.478 716.5,602.5C 716.5,605.833 716.5,609.167 716.5,612.5C 657.16,594.165 597.827,575.832 538.5,557.5C 534.303,423.183 530.637,288.85 527.5,154.5C 528.609,154.443 529.609,154.11 530.5,153.5 Z"/></g>
<g><path style="opacity:1" fill="#66cb8e" d="M 683.5,371.5 C 684.167,371.5 684.833,371.5 685.5,371.5C 685.5,431.5 685.5,491.5 685.5,551.5C 683.833,551.5 682.167,551.5 680.5,551.5C 680.167,551.5 679.833,551.5 679.5,551.5C 679.5,550.5 679.5,549.5 679.5,548.5C 679.833,548.5 680.167,548.5 680.5,548.5C 681.5,548.5 682.5,548.5 683.5,548.5C 683.5,490.167 683.5,431.833 683.5,373.5C 683.5,373.167 683.5,372.833 683.5,372.5C 683.5,372.167 683.5,371.833 683.5,371.5 Z"/></g>
<g><path style="opacity:1" fill="#53c68f" d="M 607.5,533.5 C 605.833,533.5 604.167,533.5 602.5,533.5C 602.5,532.833 602.5,532.167 602.5,531.5C 603.833,531.5 605.167,531.5 606.5,531.5C 606.333,480.499 606.5,429.499 607,378.5C 607.5,430.166 607.667,481.832 607.5,533.5 Z"/></g>
<g><path style="opacity:1" fill="#ea4e7b" d="M 668.5,383.5 C 670.5,383.5 672.5,383.5 674.5,383.5C 674.5,437.833 674.5,492.167 674.5,546.5C 673.501,492.669 673.168,438.669 673.5,384.5C 671.585,384.784 669.919,384.451 668.5,383.5 Z"/></g>
<g><path style="opacity:1" fill="#060500" d="M 723.5,397.5 C 723.5,403.5 723.5,409.5 723.5,415.5C 723.5,481.5 723.5,547.5 723.5,613.5C 722.5,614.833 721.5,614.833 720.5,613.5C 720.833,613.5 721.167,613.5 721.5,613.5C 722.499,566.336 722.832,519.003 722.5,471.5C 722.169,446.661 722.502,421.994 723.5,397.5 Z"/></g>
<g><path style="opacity:1" fill="#0d0d07" d="M 601.5,467.5 C 601.5,492.5 601.5,517.5 601.5,542.5C 600.167,542.5 598.833,542.5 597.5,542.5C 596.791,541.596 595.791,541.263 594.5,541.5C 594.5,540.833 594.5,540.167 594.5,539.5C 595.609,539.557 596.609,539.89 597.5,540.5C 598.167,540.5 598.833,540.5 599.5,540.5C 600.167,516.167 600.833,491.833 601.5,467.5 Z"/></g>
<g><path style="opacity:1" fill="#3b3c25" d="M 552.5,415.5 C 553.499,453.663 553.832,491.996 553.5,530.5C 567.136,533.606 580.803,536.606 594.5,539.5C 594.5,540.167 594.5,540.833 594.5,541.5C 580.438,538.647 566.438,535.48 552.5,532C 551.556,529.281 551.223,526.448 551.5,523.5C 552.498,487.671 552.832,451.671 552.5,415.5 Z"/></g>
<g><path style="opacity:1" fill="#6dce92" d="M 634.5,387.5 C 635.167,387.5 635.833,387.5 636.5,387.5C 637.487,407.091 637.821,426.757 637.5,446.5C 637.729,477.671 638.395,508.671 639.5,539.5C 650.252,541.583 660.919,543.917 671.5,546.5C 671.833,546.5 672.167,546.5 672.5,546.5C 672.5,547.167 672.5,547.833 672.5,548.5C 660.179,546.705 648.179,544.039 636.5,540.5C 636.497,502.326 635.83,464.326 634.5,426.5C 634.5,413.5 634.5,400.5 634.5,387.5 Z"/></g>
<g><path style="opacity:1" fill="#e3de9f" d="M 676.5,377.5 C 676.833,377.5 677.167,377.5 677.5,377.5C 677.5,423.833 677.5,470.167 677.5,516.5C 677.5,530.5 677.5,544.5 677.5,558.5C 676.209,558.737 675.209,558.404 674.5,557.5C 674.5,553.833 674.5,550.167 674.5,546.5C 674.5,492.167 674.5,437.833 674.5,383.5C 675.333,437.665 675.833,491.998 676,546.5C 676.5,490.168 676.667,433.834 676.5,377.5 Z"/></g>
<g><path style="opacity:1" fill="#605482" d="M 594.5,528.5 C 595.167,528.833 595.833,529.167 596.5,529.5C 597.338,529.842 597.672,530.508 597.5,531.5C 596.5,531.5 595.5,531.5 594.5,531.5C 594.5,531.167 594.5,530.833 594.5,530.5C 594.5,529.833 594.5,529.167 594.5,528.5 Z"/></g>
<g><path style="opacity:1" fill="#e47481" d="M 594.5,531.5 C 595.5,531.5 596.5,531.5 597.5,531.5C 597.5,534.5 597.5,537.5 597.5,540.5C 596.609,539.89 595.609,539.557 594.5,539.5C 594.5,536.833 594.5,534.167 594.5,531.5 Z"/></g>
<g><path style="opacity:1" fill="#b0b1b1" d="M 534.5,494.5 C 535.649,515.659 536.316,536.992 536.5,558.5C 535.681,555.695 535.181,552.695 535,549.5C 534.5,531.17 534.333,512.836 534.5,494.5 Z"/></g>
<g><path style="opacity:1" fill="#e65e7c" d="M 623.5,385.5 C 625.167,385.5 626.833,385.5 628.5,385.5C 628.5,386.5 628.5,387.5 628.5,388.5C 627.5,388.5 626.5,388.5 625.5,388.5C 626.243,444.504 627.243,500.504 628.5,556.5C 643.034,560.457 657.701,563.79 672.5,566.5C 672.5,564.167 672.5,561.833 672.5,559.5C 673.492,559.328 674.158,559.662 674.5,560.5C 674.5,563.167 674.5,565.833 674.5,568.5C 658.342,566.028 642.342,562.695 626.5,558.5C 625.46,537.177 624.793,515.844 624.5,494.5C 624.431,458.164 624.098,421.83 623.5,385.5 Z"/></g>
<g><path style="opacity:1" fill="#606060" d="M 747.5,471.5 C 748.499,515.997 748.832,560.664 748.5,605.5C 747.5,605.5 746.5,605.5 745.5,605.5C 747.487,561.052 748.153,516.385 747.5,471.5 Z"/></g>
<g><path style="opacity:1" fill="#ea7082" d="M 548.5,391.5 C 548.167,440.505 548.5,489.505 549.5,538.5C 564.472,541.993 579.472,545.327 594.5,548.5C 594.5,546.167 594.5,543.833 594.5,541.5C 595.791,541.263 596.791,541.596 597.5,542.5C 596.527,544.948 596.194,547.615 596.5,550.5C 595.5,550.5 594.5,550.5 593.5,550.5C 577.441,547.694 561.774,544.028 546.5,539.5C 546.5,538.167 546.5,536.833 546.5,535.5C 547.167,487.5 547.833,439.5 548.5,391.5 Z"/></g>
<g><path style="opacity:1" fill="#f0a699" d="M 597.5,542.5 C 597.5,545.5 597.5,548.5 597.5,551.5C 595.901,551.768 594.568,551.434 593.5,550.5C 594.5,550.5 595.5,550.5 596.5,550.5C 596.194,547.615 596.527,544.948 597.5,542.5 Z"/></g>
<g><path style="opacity:1" fill="#292814" d="M 678.5,375.5 C 679.499,432.998 679.832,490.664 679.5,548.5C 679.5,549.5 679.5,550.5 679.5,551.5C 679.5,554.5 679.5,557.5 679.5,560.5C 677.833,560.5 676.167,560.5 674.5,560.5C 674.158,559.662 673.492,559.328 672.5,559.5C 658.67,555.734 644.67,552.734 630.5,550.5C 630.5,538.167 630.5,525.833 630.5,513.5C 630.172,501.988 630.505,490.654 631.5,479.5C 631.179,484.695 631.513,489.695 632.5,494.5C 632.5,512.5 632.5,530.5 632.5,548.5C 645.841,551.502 659.174,554.502 672.5,557.5C 673.167,557.5 673.833,557.5 674.5,557.5C 675.209,558.404 676.209,558.737 677.5,558.5C 677.5,544.5 677.5,530.5 677.5,516.5C 678.499,469.67 678.832,422.67 678.5,375.5 Z"/></g>
<g><path style="opacity:1" fill="#f7fba2" d="M 632.5,494.5 C 633.5,494.5 634.5,494.5 635.5,494.5C 635.17,510.009 635.504,525.342 636.5,540.5C 648.179,544.039 660.179,546.705 672.5,548.5C 672.5,551.5 672.5,554.5 672.5,557.5C 659.174,554.502 645.841,551.502 632.5,548.5C 632.5,530.5 632.5,512.5 632.5,494.5 Z"/></g>
<g><path style="opacity:1" fill="#f0eba0" d="M 628.5,388.5 C 629.294,418.16 629.627,447.826 629.5,477.5C 629.172,489.678 629.505,501.678 630.5,513.5C 630.5,525.833 630.5,538.167 630.5,550.5C 644.67,552.734 658.67,555.734 672.5,559.5C 672.5,561.833 672.5,564.167 672.5,566.5C 657.701,563.79 643.034,560.457 628.5,556.5C 627.243,500.504 626.243,444.504 625.5,388.5C 626.5,388.5 627.5,388.5 628.5,388.5 Z"/></g>
<g><path style="opacity:1" fill="#f5edf3" d="M 531.5,437.5 C 532.167,441.167 532.833,444.833 533.5,448.5C 533.49,463.843 533.823,479.176 534.5,494.5C 534.333,512.836 534.5,531.17 535,549.5C 535.181,552.695 535.681,555.695 536.5,558.5C 596.391,576.904 656.391,595.571 716.5,614.5C 716.5,616.833 716.5,619.167 716.5,621.5C 692.196,614.337 667.863,607.004 643.5,599.5C 640.992,597.446 637.992,596.446 634.5,596.5C 601.145,586.657 567.811,576.491 534.5,566C 533.746,549.891 533.08,533.724 532.5,517.5C 531.951,498.505 531.618,479.505 531.5,460.5C 531.5,452.833 531.5,445.167 531.5,437.5 Z"/></g>
<g><path style="opacity:1" fill="#e667cf" d="M 532.5,517.5 C 533.08,533.724 533.746,549.891 534.5,566C 567.811,576.491 601.145,586.657 634.5,596.5C 637.254,597.946 640.254,598.946 643.5,599.5C 667.863,607.004 692.196,614.337 716.5,621.5C 716.5,619.167 716.5,616.833 716.5,614.5C 717.791,614.263 718.791,614.596 719.5,615.5C 719.215,617.288 719.548,618.955 720.5,620.5C 723.59,619.411 725.59,617.411 726.5,614.5C 727.659,612.75 729.326,611.75 731.5,611.5C 730.799,613.908 729.799,616.242 728.5,618.5C 725.5,620.333 722.5,622.167 719.5,624C 717.5,624.667 715.5,624.667 713.5,624C 652.955,604.828 592.288,586.161 531.5,568C 530.513,557.248 530.18,546.415 530.5,535.5C 530.5,529.5 530.5,523.5 530.5,517.5C 530.334,510.159 530.5,502.826 531,495.5C 531.171,503.011 531.671,510.345 532.5,517.5 Z"/></g>
<g><path style="opacity:1" fill="#f29c92" d="M 718.5,392.5 C 719.499,462.331 719.833,532.331 719.5,602.5C 719.5,603.167 719.5,603.833 719.5,604.5C 717.631,606.635 716.964,609.302 717.5,612.5C 717.167,612.5 716.833,612.5 716.5,612.5C 716.5,609.167 716.5,605.833 716.5,602.5C 716.5,601.833 716.5,601.167 716.5,600.5C 716.5,569.167 716.5,537.833 716.5,506.5C 716.5,474.167 716.5,441.833 716.5,409.5C 717.333,473.332 717.833,537.332 718,601.5C 718.5,531.834 718.667,462.167 718.5,392.5 Z"/></g>
<g><path style="opacity:1" fill="#531c7a" d="M 730.5,603.5 C 730.833,603.5 731.167,603.5 731.5,603.5C 731.5,604.5 731.5,605.5 731.5,606.5C 730.167,606.5 728.833,606.5 727.5,606.5C 727.5,605.833 727.5,605.167 727.5,604.5C 728.333,492.001 728.833,379.334 729,266.5C 729.167,379.001 729.667,491.334 730.5,603.5 Z"/></g>
<g><path style="opacity:1" fill="#7d7f56" d="M 721.5,471.5 C 721.833,471.5 722.167,471.5 722.5,471.5C 722.832,519.003 722.499,566.336 721.5,613.5C 722.055,609.988 721.388,606.988 719.5,604.5C 719.5,603.833 719.5,603.167 719.5,602.5C 721.495,559.179 722.161,515.513 721.5,471.5 Z"/></g>
<g><path style="opacity:1" fill="#201e1a" d="M 538.5,557.5 C 597.827,575.832 657.16,594.165 716.5,612.5C 716.833,612.5 717.167,612.5 717.5,612.5C 718.167,612.5 718.833,612.5 719.5,612.5C 719.5,613.167 719.833,613.5 720.5,613.5C 721.5,614.833 722.5,614.833 723.5,613.5C 724.492,613.672 725.158,613.338 725.5,612.5C 726.5,612.167 727.167,611.5 727.5,610.5C 728.609,610.443 729.609,610.11 730.5,609.5C 730.5,610.167 730.833,610.5 731.5,610.5C 731.5,610.833 731.5,611.167 731.5,611.5C 729.326,611.75 727.659,612.75 726.5,614.5C 725.244,614.904 724.077,615.571 723,616.5C 721.862,616.011 720.695,615.678 719.5,615.5C 718.791,614.596 717.791,614.263 716.5,614.5C 656.391,595.571 596.391,576.904 536.5,558.5C 537.492,558.672 538.158,558.338 538.5,557.5 Z"/></g>
<g><path style="opacity:1" fill="#86885a" d="M 723.5,415.5 C 724.167,481.167 724.833,546.833 725.5,612.5C 725.158,613.338 724.492,613.672 723.5,613.5C 723.5,547.5 723.5,481.5 723.5,415.5 Z"/></g>
<g><path style="opacity:1" fill="#f7baec" d="M 634.5,596.5 C 637.992,596.446 640.992,597.446 643.5,599.5C 640.254,598.946 637.254,597.946 634.5,596.5 Z"/></g>
<g><path style="opacity:1" fill="#f9f1b3" d="M 719.5,604.5 C 721.388,606.988 722.055,609.988 721.5,613.5C 721.167,613.5 720.833,613.5 720.5,613.5C 719.833,613.5 719.5,613.167 719.5,612.5C 719.5,609.833 719.5,607.167 719.5,604.5 Z"/></g>
<g><path style="opacity:1" fill="#d13a7d" d="M 727.5,606.5 C 728.833,606.5 730.167,606.5 731.5,606.5C 731.5,607.167 731.5,607.833 731.5,608.5C 731.5,609.167 731.167,609.5 730.5,609.5C 729.609,610.11 728.609,610.443 727.5,610.5C 727.5,609.167 727.5,607.833 727.5,606.5 Z"/></g>
<g><path style="opacity:1" fill="#e4697b" d="M 719.5,604.5 C 719.5,607.167 719.5,609.833 719.5,612.5C 718.833,612.5 718.167,612.5 717.5,612.5C 716.964,609.302 717.631,606.635 719.5,604.5 Z"/></g>
<g><path style="opacity:1" fill="#e4cee3" d="M 726.5,614.5 C 725.59,617.411 723.59,619.411 720.5,620.5C 719.548,618.955 719.215,617.288 719.5,615.5C 720.695,615.678 721.862,616.011 723,616.5C 724.077,615.571 725.244,614.904 726.5,614.5 Z"/></g>
</svg>
